<mxfile host="app.diagrams.net" modified="2024-02-25T08:42:07.295Z" agent="Mozilla/5.0 (Windows NT 10.0; Win64; x64; rv:123.0) Gecko/20100101 Firefox/123.0" etag="7TyMuLw0i1b3YHZvrsnt" version="23.1.6" type="github">
  <diagram id="C5RBs43oDa-KdzZeNtuy" name="Page-1">
    <mxGraphModel dx="1434" dy="746" grid="1" gridSize="10" guides="1" tooltips="1" connect="1" arrows="1" fold="1" page="1" pageScale="1" pageWidth="827" pageHeight="1169" math="0" shadow="0">
      <root>
        <mxCell id="WIyWlLk6GJQsqaUBKTNV-0" />
        <mxCell id="WIyWlLk6GJQsqaUBKTNV-1" parent="WIyWlLk6GJQsqaUBKTNV-0" />
        <mxCell id="ZqB7BKODghQhICVH7zgt-12" value="" style="edgeStyle=orthogonalEdgeStyle;rounded=0;orthogonalLoop=1;jettySize=auto;html=1;" edge="1" parent="WIyWlLk6GJQsqaUBKTNV-1">
          <mxGeometry relative="1" as="geometry">
            <mxPoint x="483" y="200" as="sourcePoint" />
          </mxGeometry>
        </mxCell>
        <mxCell id="ZqB7BKODghQhICVH7zgt-17" style="edgeStyle=orthogonalEdgeStyle;rounded=0;orthogonalLoop=1;jettySize=auto;html=1;exitX=1;exitY=0.5;exitDx=0;exitDy=0;exitPerimeter=0;entryX=0;entryY=0.5;entryDx=0;entryDy=0;" edge="1" parent="WIyWlLk6GJQsqaUBKTNV-1" source="ZqB7BKODghQhICVH7zgt-19" target="ZqB7BKODghQhICVH7zgt-28">
          <mxGeometry relative="1" as="geometry">
            <mxPoint x="264" y="200" as="sourcePoint" />
            <mxPoint x="340" y="200" as="targetPoint" />
          </mxGeometry>
        </mxCell>
        <mxCell id="ZqB7BKODghQhICVH7zgt-19" value="Start" style="strokeWidth=2;html=1;shape=mxgraph.flowchart.terminator;whiteSpace=wrap;" vertex="1" parent="WIyWlLk6GJQsqaUBKTNV-1">
          <mxGeometry x="119" y="170" width="100" height="60" as="geometry" />
        </mxCell>
        <mxCell id="ZqB7BKODghQhICVH7zgt-23" style="edgeStyle=orthogonalEdgeStyle;rounded=0;orthogonalLoop=1;jettySize=auto;html=1;entryX=1;entryY=0.5;entryDx=0;entryDy=0;entryPerimeter=0;" edge="1" parent="WIyWlLk6GJQsqaUBKTNV-1">
          <mxGeometry relative="1" as="geometry">
            <mxPoint x="363" y="320" as="sourcePoint" />
          </mxGeometry>
        </mxCell>
        <mxCell id="ZqB7BKODghQhICVH7zgt-24" value="PcuUpdate" style="text;html=1;align=center;verticalAlign=middle;resizable=0;points=[];autosize=1;strokeColor=none;fillColor=none;" vertex="1" parent="WIyWlLk6GJQsqaUBKTNV-1">
          <mxGeometry x="40" y="20" width="80" height="30" as="geometry" />
        </mxCell>
        <mxCell id="ZqB7BKODghQhICVH7zgt-25" value="uploadLocalFileToPcu" style="text;html=1;align=center;verticalAlign=middle;resizable=0;points=[];autosize=1;strokeColor=none;fillColor=none;" vertex="1" parent="WIyWlLk6GJQsqaUBKTNV-1">
          <mxGeometry x="40" y="50" width="150" height="30" as="geometry" />
        </mxCell>
        <mxCell id="ZqB7BKODghQhICVH7zgt-31" style="edgeStyle=orthogonalEdgeStyle;rounded=0;orthogonalLoop=1;jettySize=auto;html=1;entryX=0.5;entryY=0;entryDx=0;entryDy=0;" edge="1" parent="WIyWlLk6GJQsqaUBKTNV-1" source="ZqB7BKODghQhICVH7zgt-26" target="ZqB7BKODghQhICVH7zgt-30">
          <mxGeometry relative="1" as="geometry" />
        </mxCell>
        <mxCell id="ZqB7BKODghQhICVH7zgt-32" value="Element" style="edgeLabel;html=1;align=center;verticalAlign=middle;resizable=0;points=[];" vertex="1" connectable="0" parent="ZqB7BKODghQhICVH7zgt-31">
          <mxGeometry x="-0.1333" y="-2" relative="1" as="geometry">
            <mxPoint x="-28" as="offset" />
          </mxGeometry>
        </mxCell>
        <mxCell id="ZqB7BKODghQhICVH7zgt-33" style="edgeStyle=orthogonalEdgeStyle;rounded=0;orthogonalLoop=1;jettySize=auto;html=1;entryX=0.5;entryY=0;entryDx=0;entryDy=0;exitX=0.5;exitY=0;exitDx=0;exitDy=0;" edge="1" parent="WIyWlLk6GJQsqaUBKTNV-1" source="ZqB7BKODghQhICVH7zgt-26" target="ZqB7BKODghQhICVH7zgt-39">
          <mxGeometry relative="1" as="geometry">
            <mxPoint x="730" y="200" as="targetPoint" />
          </mxGeometry>
        </mxCell>
        <mxCell id="ZqB7BKODghQhICVH7zgt-34" value="No more Elements" style="edgeLabel;html=1;align=center;verticalAlign=middle;resizable=0;points=[];" vertex="1" connectable="0" parent="ZqB7BKODghQhICVH7zgt-33">
          <mxGeometry x="0.0654" y="2" relative="1" as="geometry">
            <mxPoint x="48" y="10" as="offset" />
          </mxGeometry>
        </mxCell>
        <mxCell id="ZqB7BKODghQhICVH7zgt-26" value="Foreach &lt;br&gt;element pcuFile in&lt;br&gt;&amp;nbsp; pcuFileMatch" style="rhombus;whiteSpace=wrap;html=1;" vertex="1" parent="WIyWlLk6GJQsqaUBKTNV-1">
          <mxGeometry x="480" y="140" width="120" height="120" as="geometry" />
        </mxCell>
        <mxCell id="ZqB7BKODghQhICVH7zgt-29" style="edgeStyle=orthogonalEdgeStyle;rounded=0;orthogonalLoop=1;jettySize=auto;html=1;entryX=0;entryY=0.5;entryDx=0;entryDy=0;" edge="1" parent="WIyWlLk6GJQsqaUBKTNV-1" source="ZqB7BKODghQhICVH7zgt-28" target="ZqB7BKODghQhICVH7zgt-26">
          <mxGeometry relative="1" as="geometry" />
        </mxCell>
        <mxCell id="ZqB7BKODghQhICVH7zgt-28" value="set &lt;br&gt;matchflag&lt;br&gt;to false" style="shape=parallelogram;html=1;strokeWidth=2;perimeter=parallelogramPerimeter;whiteSpace=wrap;rounded=1;arcSize=12;size=0.23;" vertex="1" parent="WIyWlLk6GJQsqaUBKTNV-1">
          <mxGeometry x="330" y="170" width="90" height="60" as="geometry" />
        </mxCell>
        <mxCell id="ZqB7BKODghQhICVH7zgt-35" style="edgeStyle=orthogonalEdgeStyle;rounded=0;orthogonalLoop=1;jettySize=auto;html=1;entryX=1;entryY=0.5;entryDx=0;entryDy=0;" edge="1" parent="WIyWlLk6GJQsqaUBKTNV-1" source="ZqB7BKODghQhICVH7zgt-30" target="ZqB7BKODghQhICVH7zgt-40">
          <mxGeometry relative="1" as="geometry">
            <mxPoint x="410" y="380" as="targetPoint" />
          </mxGeometry>
        </mxCell>
        <mxCell id="ZqB7BKODghQhICVH7zgt-36" value="True" style="edgeLabel;html=1;align=center;verticalAlign=middle;resizable=0;points=[];" vertex="1" connectable="0" parent="ZqB7BKODghQhICVH7zgt-35">
          <mxGeometry x="-0.0922" relative="1" as="geometry">
            <mxPoint y="-20" as="offset" />
          </mxGeometry>
        </mxCell>
        <mxCell id="ZqB7BKODghQhICVH7zgt-54" style="edgeStyle=orthogonalEdgeStyle;rounded=0;orthogonalLoop=1;jettySize=auto;html=1;entryX=1;entryY=0.5;entryDx=0;entryDy=0;" edge="1" parent="WIyWlLk6GJQsqaUBKTNV-1" source="ZqB7BKODghQhICVH7zgt-30" target="ZqB7BKODghQhICVH7zgt-26">
          <mxGeometry relative="1" as="geometry">
            <mxPoint x="630" y="200" as="targetPoint" />
            <Array as="points">
              <mxPoint x="620" y="380" />
              <mxPoint x="620" y="200" />
            </Array>
          </mxGeometry>
        </mxCell>
        <mxCell id="ZqB7BKODghQhICVH7zgt-55" value="false" style="edgeLabel;html=1;align=center;verticalAlign=middle;resizable=0;points=[];" vertex="1" connectable="0" parent="ZqB7BKODghQhICVH7zgt-54">
          <mxGeometry x="-0.1273" y="-2" relative="1" as="geometry">
            <mxPoint x="-22" y="-4" as="offset" />
          </mxGeometry>
        </mxCell>
        <mxCell id="ZqB7BKODghQhICVH7zgt-30" value="match found &lt;br&gt;localfile and &lt;br&gt;pcuFile" style="rhombus;whiteSpace=wrap;html=1;" vertex="1" parent="WIyWlLk6GJQsqaUBKTNV-1">
          <mxGeometry x="480" y="320" width="120" height="120" as="geometry" />
        </mxCell>
        <mxCell id="ZqB7BKODghQhICVH7zgt-58" style="edgeStyle=orthogonalEdgeStyle;rounded=0;orthogonalLoop=1;jettySize=auto;html=1;entryX=1;entryY=0.5;entryDx=0;entryDy=0;entryPerimeter=0;" edge="1" parent="WIyWlLk6GJQsqaUBKTNV-1" source="ZqB7BKODghQhICVH7zgt-39" target="ZqB7BKODghQhICVH7zgt-63">
          <mxGeometry relative="1" as="geometry">
            <mxPoint x="400" y="690" as="targetPoint" />
            <Array as="points">
              <mxPoint x="670" y="690" />
            </Array>
          </mxGeometry>
        </mxCell>
        <mxCell id="ZqB7BKODghQhICVH7zgt-60" value="True" style="edgeLabel;html=1;align=center;verticalAlign=middle;resizable=0;points=[];" vertex="1" connectable="0" parent="ZqB7BKODghQhICVH7zgt-58">
          <mxGeometry x="0.0448" y="-2" relative="1" as="geometry">
            <mxPoint y="-18" as="offset" />
          </mxGeometry>
        </mxCell>
        <mxCell id="ZqB7BKODghQhICVH7zgt-61" style="edgeStyle=orthogonalEdgeStyle;rounded=0;orthogonalLoop=1;jettySize=auto;html=1;entryX=0.5;entryY=0;entryDx=0;entryDy=0;" edge="1" parent="WIyWlLk6GJQsqaUBKTNV-1" source="ZqB7BKODghQhICVH7zgt-39" target="ZqB7BKODghQhICVH7zgt-64">
          <mxGeometry relative="1" as="geometry">
            <mxPoint x="760" y="750" as="targetPoint" />
            <Array as="points">
              <mxPoint x="730" y="570" />
            </Array>
          </mxGeometry>
        </mxCell>
        <mxCell id="ZqB7BKODghQhICVH7zgt-62" value="False" style="edgeLabel;html=1;align=center;verticalAlign=middle;resizable=0;points=[];" vertex="1" connectable="0" parent="ZqB7BKODghQhICVH7zgt-61">
          <mxGeometry x="0.1911" y="1" relative="1" as="geometry">
            <mxPoint x="19" as="offset" />
          </mxGeometry>
        </mxCell>
        <mxCell id="ZqB7BKODghQhICVH7zgt-39" value="matchflag" style="rhombus;whiteSpace=wrap;html=1;" vertex="1" parent="WIyWlLk6GJQsqaUBKTNV-1">
          <mxGeometry x="620" y="515" width="100" height="110" as="geometry" />
        </mxCell>
        <mxCell id="ZqB7BKODghQhICVH7zgt-42" style="edgeStyle=orthogonalEdgeStyle;rounded=0;orthogonalLoop=1;jettySize=auto;html=1;entryX=1;entryY=0.5;entryDx=0;entryDy=0;" edge="1" parent="WIyWlLk6GJQsqaUBKTNV-1" source="ZqB7BKODghQhICVH7zgt-40" target="ZqB7BKODghQhICVH7zgt-41">
          <mxGeometry relative="1" as="geometry" />
        </mxCell>
        <mxCell id="ZqB7BKODghQhICVH7zgt-40" value="send to ftp" style="rounded=1;whiteSpace=wrap;html=1;fontSize=12;glass=0;strokeWidth=1;shadow=0;" vertex="1" parent="WIyWlLk6GJQsqaUBKTNV-1">
          <mxGeometry x="260" y="360" width="120" height="40" as="geometry" />
        </mxCell>
        <mxCell id="ZqB7BKODghQhICVH7zgt-43" style="edgeStyle=orthogonalEdgeStyle;rounded=0;orthogonalLoop=1;jettySize=auto;html=1;entryX=0;entryY=0.5;entryDx=0;entryDy=0;" edge="1" parent="WIyWlLk6GJQsqaUBKTNV-1" source="ZqB7BKODghQhICVH7zgt-41" target="ZqB7BKODghQhICVH7zgt-49">
          <mxGeometry relative="1" as="geometry">
            <mxPoint x="185" y="500" as="targetPoint" />
            <Array as="points">
              <mxPoint x="180" y="480" />
            </Array>
          </mxGeometry>
        </mxCell>
        <mxCell id="ZqB7BKODghQhICVH7zgt-44" value="False" style="edgeLabel;html=1;align=center;verticalAlign=middle;resizable=0;points=[];" vertex="1" connectable="0" parent="ZqB7BKODghQhICVH7zgt-43">
          <mxGeometry x="0.0043" y="3" relative="1" as="geometry">
            <mxPoint x="12" y="-2" as="offset" />
          </mxGeometry>
        </mxCell>
        <mxCell id="ZqB7BKODghQhICVH7zgt-45" style="edgeStyle=orthogonalEdgeStyle;rounded=0;orthogonalLoop=1;jettySize=auto;html=1;entryX=0;entryY=0.5;entryDx=0;entryDy=0;" edge="1" parent="WIyWlLk6GJQsqaUBKTNV-1" source="ZqB7BKODghQhICVH7zgt-41" target="ZqB7BKODghQhICVH7zgt-52">
          <mxGeometry relative="1" as="geometry">
            <mxPoint x="70" y="570" as="targetPoint" />
            <Array as="points">
              <mxPoint x="80" y="380" />
              <mxPoint x="80" y="570" />
            </Array>
          </mxGeometry>
        </mxCell>
        <mxCell id="ZqB7BKODghQhICVH7zgt-46" value="True" style="edgeLabel;html=1;align=center;verticalAlign=middle;resizable=0;points=[];" vertex="1" connectable="0" parent="ZqB7BKODghQhICVH7zgt-45">
          <mxGeometry x="0.4174" y="-1" relative="1" as="geometry">
            <mxPoint x="21" y="2" as="offset" />
          </mxGeometry>
        </mxCell>
        <mxCell id="ZqB7BKODghQhICVH7zgt-41" value="send successful" style="rhombus;whiteSpace=wrap;html=1;" vertex="1" parent="WIyWlLk6GJQsqaUBKTNV-1">
          <mxGeometry x="139" y="335" width="91" height="90" as="geometry" />
        </mxCell>
        <mxCell id="ZqB7BKODghQhICVH7zgt-49" value="return&lt;br&gt;pcuFile" style="shape=parallelogram;html=1;strokeWidth=2;perimeter=parallelogramPerimeter;whiteSpace=wrap;rounded=1;arcSize=12;size=0.23;" vertex="1" parent="WIyWlLk6GJQsqaUBKTNV-1">
          <mxGeometry x="240" y="450" width="90" height="60" as="geometry" />
        </mxCell>
        <mxCell id="ZqB7BKODghQhICVH7zgt-50" value="End" style="strokeWidth=2;html=1;shape=mxgraph.flowchart.terminator;whiteSpace=wrap;" vertex="1" parent="WIyWlLk6GJQsqaUBKTNV-1">
          <mxGeometry x="370" y="450" width="100" height="60" as="geometry" />
        </mxCell>
        <mxCell id="ZqB7BKODghQhICVH7zgt-51" style="edgeStyle=orthogonalEdgeStyle;rounded=0;orthogonalLoop=1;jettySize=auto;html=1;entryX=0;entryY=0.5;entryDx=0;entryDy=0;entryPerimeter=0;" edge="1" parent="WIyWlLk6GJQsqaUBKTNV-1" source="ZqB7BKODghQhICVH7zgt-49" target="ZqB7BKODghQhICVH7zgt-50">
          <mxGeometry relative="1" as="geometry" />
        </mxCell>
        <mxCell id="ZqB7BKODghQhICVH7zgt-53" style="edgeStyle=orthogonalEdgeStyle;rounded=0;orthogonalLoop=1;jettySize=auto;html=1;entryX=0;entryY=0.5;entryDx=0;entryDy=0;" edge="1" parent="WIyWlLk6GJQsqaUBKTNV-1" source="ZqB7BKODghQhICVH7zgt-52" target="ZqB7BKODghQhICVH7zgt-56">
          <mxGeometry relative="1" as="geometry" />
        </mxCell>
        <mxCell id="ZqB7BKODghQhICVH7zgt-52" value="set &lt;br&gt;matchflag&lt;br&gt;to true" style="shape=parallelogram;html=1;strokeWidth=2;perimeter=parallelogramPerimeter;whiteSpace=wrap;rounded=1;arcSize=12;size=0.23;" vertex="1" parent="WIyWlLk6GJQsqaUBKTNV-1">
          <mxGeometry x="150" y="540" width="90" height="60" as="geometry" />
        </mxCell>
        <mxCell id="ZqB7BKODghQhICVH7zgt-57" style="edgeStyle=orthogonalEdgeStyle;rounded=0;orthogonalLoop=1;jettySize=auto;html=1;" edge="1" parent="WIyWlLk6GJQsqaUBKTNV-1" source="ZqB7BKODghQhICVH7zgt-56" target="ZqB7BKODghQhICVH7zgt-39">
          <mxGeometry relative="1" as="geometry" />
        </mxCell>
        <mxCell id="ZqB7BKODghQhICVH7zgt-56" value="break loop" style="rounded=1;whiteSpace=wrap;html=1;fontSize=12;glass=0;strokeWidth=1;shadow=0;" vertex="1" parent="WIyWlLk6GJQsqaUBKTNV-1">
          <mxGeometry x="320" y="550" width="120" height="40" as="geometry" />
        </mxCell>
        <mxCell id="ZqB7BKODghQhICVH7zgt-63" value="End" style="strokeWidth=2;html=1;shape=mxgraph.flowchart.terminator;whiteSpace=wrap;" vertex="1" parent="WIyWlLk6GJQsqaUBKTNV-1">
          <mxGeometry x="330" y="660" width="100" height="60" as="geometry" />
        </mxCell>
        <mxCell id="ZqB7BKODghQhICVH7zgt-64" value="get file extension" style="rounded=1;whiteSpace=wrap;html=1;fontSize=12;glass=0;strokeWidth=1;shadow=0;" vertex="1" parent="WIyWlLk6GJQsqaUBKTNV-1">
          <mxGeometry x="670" y="760" width="120" height="40" as="geometry" />
        </mxCell>
      </root>
    </mxGraphModel>
  </diagram>
</mxfile>
